<svg width="78" height="72" viewBox="0 0 78 72" fill="none" xmlns="http://www.w3.org/2000/svg">
<path d="M72.171 35.8304C74.0336 34.567 75.2499 32.5331 75.2499 30.2367C75.2499 26.6295 72.2623 23.6596 68.4575 23.3287C64.25 14.977 56.1412 8.86502 46.4813 6.7571C46.2875 3.08853 43.0113 0.156906 39 0.156906C34.9887 0.156906 31.7125 3.08853 31.5187 6.7571C21.86 8.86502 13.7487 14.9793 9.54251 23.3287C5.7375 23.6596 2.75 26.6295 2.75 30.2367C2.75 32.5331 3.96625 34.567 5.82875 35.8304C2.52875 37.3448 0.249992 40.487 0.249992 44.1197V47.5904C0.249992 48.2291 0.809999 48.7474 1.5 48.7474H9.55872C13.4212 56.3783 20.715 62.2601 29.3837 64.7511C29.14 65.5492 29 66.3879 29 67.2581V70.7289C29 71.3671 29.56 71.8854 30.25 71.8854H47.75C48.44 71.8854 49 71.3671 49 70.7289V67.2581C49 66.3879 48.86 65.5492 48.6175 64.7511C57.285 62.2601 64.5788 56.3783 68.4413 48.7474H76.5002C77.1897 48.7474 77.7497 48.2291 77.7497 47.5904V44.1197C77.7497 40.487 75.4715 37.3448 72.171 35.8304ZM72.7501 30.2367C72.7501 32.7888 70.5073 34.8644 67.75 34.8644C64.9925 34.8644 62.75 32.7888 62.75 30.2367C62.75 27.6845 64.9925 25.6091 67.75 25.6091C70.5073 25.6091 72.7501 27.6845 72.7501 30.2367ZM39 2.47074C41.7575 2.47074 44 4.54625 44 7.09842C44 9.65053 41.7575 11.7261 39 11.7261C36.2425 11.7261 34 9.65053 34 7.09842C34 4.54625 36.2425 2.47074 39 2.47074ZM5.24999 30.2367C5.24999 27.6845 7.49253 25.6091 10.25 25.6091C13.0075 25.6091 15.25 27.6845 15.25 30.2367C15.25 32.7888 13.0075 34.8644 10.25 34.8644C7.49253 34.8644 5.24999 32.7888 5.24999 30.2367ZM2.75 44.1197C2.75 40.2914 6.11377 37.1782 10.25 37.1782C14.3863 37.1782 17.75 40.2914 17.75 44.1197V46.4335H2.75V44.1197ZM46.5 69.5717H31.5V67.2581C31.5 63.4297 34.8637 60.3165 39 60.3165C43.1363 60.3165 46.5 63.4297 46.5 67.2581V69.5717ZM34 53.375C34 50.8228 36.2425 48.7474 39 48.7474C41.7575 48.7474 44 50.8228 44 53.375C44 55.9271 41.7575 58.0027 39 58.0027C36.2425 58.0027 34 55.9271 34 53.375ZM47.6325 62.6083C46.6462 61.0454 45.1812 59.7762 43.4212 58.9687C45.2837 57.7053 46.5 55.6714 46.5 53.375C46.5 49.5468 43.1363 46.4335 39 46.4335C34.8637 46.4335 31.5 49.5468 31.5 53.375C31.5 55.6714 32.7162 57.7053 34.5788 58.9687C32.82 59.7762 31.355 61.0454 30.3675 62.6083C22.6338 60.4553 16.0537 55.3869 12.3375 48.7474H19C19.69 48.7474 20.25 48.2291 20.25 47.5904V44.1197C20.25 40.487 17.9713 37.3448 14.6712 35.8304C16.5337 34.567 17.75 32.5331 17.75 30.2367C17.75 27.0332 15.39 24.3376 12.1975 23.5416C16.1375 16.3016 23.315 11.0041 31.8113 9.06978C32.2837 10.5414 33.27 11.8059 34.5775 12.6932C31.2787 14.2065 29 17.3487 29 20.9814V24.4522C29 25.0908 29.56 25.6091 30.25 25.6091H47.75C48.44 25.6091 49 25.0908 49 24.4522V20.9814C49 17.3487 46.7213 14.2065 43.4212 12.6921C44.7275 11.8047 45.715 10.5402 46.1875 9.0686C54.6862 11.003 61.8612 16.2993 65.8013 23.5404C62.6088 24.3376 60.25 27.0332 60.25 30.2367C60.25 32.5331 61.4663 34.567 63.3288 35.8304C60.0287 37.3448 57.75 40.487 57.75 44.1197V47.5904C57.75 48.2291 58.31 48.7474 59 48.7474H65.6625C61.945 55.3869 55.3662 60.4553 47.6325 62.6083ZM39 14.0399C43.1363 14.0399 46.5 17.1531 46.5 20.9814V23.2952H31.5V20.9814C31.5 17.1531 34.8637 14.0399 39 14.0399ZM75.2499 46.4335H60.25V44.1197C60.25 40.2914 63.6137 37.1782 67.75 37.1782C71.8864 37.1782 75.2499 40.2914 75.2499 44.1197V46.4335Z" fill="#FC8047"/>
</svg>
