<svg width="66" height="45" viewBox="0 0 66 45" fill="none" xmlns="http://www.w3.org/2000/svg">
<path d="M64.2503 0.255325H1.75003C1.41853 0.255325 1.10058 0.37722 0.866129 0.594207C0.631682 0.811134 0.500046 1.10541 0.500046 1.41223V43.0612C0.500046 43.368 0.631682 43.6623 0.866129 43.8792C1.10058 44.0962 1.41853 44.2181 1.75003 44.2181H64.2503C64.5815 44.2181 64.8995 44.0962 65.1342 43.8792C65.3683 43.6623 65.4998 43.368 65.4998 43.0612V1.41223C65.4998 1.10541 65.3683 0.811134 65.1342 0.594207C64.8995 0.37722 64.5815 0.255325 64.2503 0.255325ZM8.00001 36.1197V37.2766H6.75003V34.9628H8.08299C8.02858 35.2459 8.00001 36.1197 8.00001 36.1197ZM13 41.9043H10.5V37.6014L13 38.1799V41.9043ZM23 37.2766V41.9043H15.5V37.2766C15.5 37.0186 15.4068 36.768 15.2353 36.5646C15.0637 36.3613 14.8236 36.2168 14.5531 36.1543L10.5781 35.2344C10.648 34.958 10.7665 34.6942 10.9289 34.4534L10.9299 34.4522C11.1408 34.1395 11.4213 33.8721 11.7527 33.6677C12.0841 33.4634 12.4588 33.3268 12.8517 33.267L16.2513 32.7426C17.0487 33.4758 18.1272 33.8873 19.2513 33.8873C20.3754 33.8873 21.4538 33.4758 22.2513 32.7426L25.6508 33.267C26.1974 33.3501 26.7052 33.5814 27.1098 33.9318C27.5143 34.282 27.7976 34.7355 27.9236 35.2348L23.9479 36.1547C23.6773 36.2171 23.437 36.3613 23.2653 36.5647C23.0936 36.768 23.0001 37.0186 23 37.2766ZM23.8839 22.5755L21.3839 20.2617C21.1984 20.09 20.9592 19.9766 20.7002 19.9377C20.4413 19.8988 20.1756 19.9362 19.941 20.0448L14.941 22.3586C14.7333 22.4548 14.5586 22.6025 14.4366 22.7852C14.3146 22.9681 14.2499 23.1787 14.25 23.3936V25.7075C14.2493 26.8332 14.694 27.9203 15.5 28.7634V30.512L14.5361 30.6605C13.5424 29.6101 12.9963 28.2605 13 26.8644V22.2367C13 20.7025 13.6585 19.2312 14.8306 18.1464C16.0027 17.0616 17.5924 16.4522 19.25 16.4522C20.9076 16.4522 22.4973 17.0616 23.6694 18.1464C24.8415 19.2312 25.5 20.7025 25.5 22.2367V26.8644C25.5038 28.2605 24.9576 29.6101 23.9639 30.6605L23 30.512V28.7634C23.806 27.9203 24.2507 26.8332 24.25 25.7075V23.3936C24.25 23.2417 24.2177 23.0913 24.1549 22.9509C24.092 22.8105 24 22.683 23.8839 22.5755ZM19.25 28.0213C18.5872 28.0205 17.9518 27.7765 17.4831 27.3428C17.0144 26.909 16.7508 26.3209 16.75 25.7075V24.1086L20.2532 22.4875L21.75 23.8728V25.7075C21.7492 26.3209 21.4856 26.909 21.0169 27.3428C20.5482 27.7765 19.9128 28.0205 19.25 28.0213ZM20.5 30.1886V31.0871C20.3372 31.2412 20.1428 31.3637 19.9281 31.4473C19.7134 31.5308 19.4829 31.5739 19.25 31.5739C19.0171 31.5739 18.7866 31.5308 18.5719 31.4473C18.3573 31.3637 18.1629 31.2412 18 31.0871V30.1892C18.82 30.3845 19.68 30.384 20.5 30.1886ZM28.3489 41.9043H25.5V38.1799L28.2396 37.546L28.7992 40.654L28.3489 41.9043ZM29.2405 32.6489C28.5718 31.9201 27.6873 31.3885 26.6959 31.1196C27.5518 29.8419 28.0035 28.3677 28 26.8644V22.2367C28 20.0889 27.0782 18.029 25.4372 16.5103C23.7962 14.9915 21.5707 14.1383 19.25 14.1383C16.9294 14.1383 14.7037 14.9915 13.0628 16.5103C11.4219 18.029 10.5 20.0889 10.5 22.2367V26.8644C10.4966 28.3678 10.9484 29.8419 11.804 31.1198C10.8125 31.3885 9.92762 31.9201 9.25879 32.6489H8.00001V9.51064H58V32.6489H39.25C39.25 32.3421 39.1183 32.0479 38.8839 31.8309C38.6495 31.6139 38.3315 31.492 38 31.492H37.1572L39.2019 24.8687C39.247 24.7226 39.2606 24.5697 39.2419 24.4188C39.2233 24.2678 39.1726 24.1217 39.0929 23.989C39.0132 23.8561 38.9061 23.7391 38.7775 23.6446C38.649 23.5501 38.5016 23.48 38.3438 23.4382C38.1859 23.3964 38.0208 23.3838 37.8577 23.4011C37.6946 23.4184 37.5367 23.4653 37.3932 23.539C37.2497 23.6128 37.1233 23.7119 37.0212 23.8309C36.9191 23.9499 36.8433 24.0863 36.7982 24.2324L34.557 31.492H33C32.7377 31.492 32.4819 31.5684 32.2691 31.7104C32.0562 31.8523 31.8971 32.0527 31.8141 32.2831L31.6823 32.6489H29.2405ZM59.2499 34.9628V37.2766H38.2952L38.5591 37.1544C38.7667 37.0583 38.9413 36.9106 39.0634 36.7279C39.1853 36.5451 39.25 36.3345 39.25 36.1197V34.9628H59.2499ZM30.5222 35.8702L30.4989 35.7361C30.4932 35.4768 30.4655 35.2182 30.4161 34.9628H30.8489L30.5222 35.8702ZM34.2743 37.0497L34.0261 38.1981L34.025 38.2032L33.2251 41.9043H30.9844L33.901 33.8058H36.75V35.4047L34.941 36.2419C34.7707 36.3207 34.6222 36.4344 34.5066 36.5744C34.391 36.7144 34.3116 36.877 34.2743 37.0497ZM63 41.9043H35.7749L36.2749 39.5904H60.5002C60.8314 39.5904 61.1494 39.4686 61.3842 39.2516C61.6182 39.0346 61.7498 38.7404 61.7498 38.4335V33.8058C61.7498 33.499 61.6182 33.2048 61.3842 32.9878C61.1494 32.7708 60.8314 32.6489 60.5002 32.6489V8.35374C60.5002 8.04693 60.3686 7.75265 60.1339 7.53567C59.8992 7.31868 59.5818 7.19684 59.2499 7.19684H6.75003C6.41853 7.19684 6.10057 7.31868 5.86613 7.53567C5.63168 7.75265 5.49998 8.04693 5.49998 8.35374V32.6489C5.16848 32.6489 4.85053 32.7708 4.61615 32.9878C4.3817 33.2048 4.25 33.499 4.25 33.8058V38.4335C4.25 38.7404 4.3817 39.0346 4.61615 39.2516C4.85053 39.4686 5.16848 39.5904 5.49998 39.5904H8.00001V41.9043H3.00001V2.56912H63V41.9043Z" fill="#FC8047"/>
</svg>
