<svg width="80" height="61" viewBox="0 0 80 61" fill="none" xmlns="http://www.w3.org/2000/svg">
<path d="M79.674 17.4177L66.2841 1.10198C65.7884 0.498565 64.8845 0.349687 64.1992 0.758462L55.5541 5.91576H44.2791C44.1333 5.91576 43.988 5.94497 43.8476 5.9833L35.1056 8.34382L26.0346 6.01653L17.2205 0.758462C16.5467 0.356588 15.6592 0.492802 15.1581 1.07565L0.34799 18.2833C-0.184235 18.9017 -0.0963448 19.8045 0.545743 20.3227L8.30819 26.589L15.2722 35.392C13.2355 37.4273 13.2752 40.6375 15.3943 42.6258C16.3337 43.5064 17.5281 44.0039 18.7567 44.1195C18.714 44.3806 18.6921 44.6457 18.6921 44.9148C18.6921 46.3037 19.2688 47.6096 20.3156 48.5915C21.3629 49.574 22.7551 50.115 24.2359 50.115C24.256 50.115 24.2756 50.1138 24.2951 50.1133C24.2944 50.1488 24.2926 50.1837 24.2926 50.2192C24.2926 51.6082 24.8694 52.9143 25.9161 53.8965C26.9635 54.8781 28.3557 55.4195 29.8364 55.4195C30.1288 55.4195 30.4181 55.3974 30.7019 55.3558C30.8221 56.5123 31.3538 57.6379 32.2961 58.5216C33.3765 59.536 34.7961 60.0426 36.2158 60.0426C37.6355 60.0426 39.0552 59.536 40.1361 58.5216L40.9839 57.727L41.3397 57.9957C42.4114 58.9699 43.8031 59.4563 45.1946 59.4563C46.6143 59.4563 48.034 58.9498 49.1143 57.9354C50.2172 56.9009 50.7574 55.5354 50.7348 54.1773C52.1825 54.1974 53.6388 53.6915 54.7418 52.6577C55.8435 51.6236 56.3836 50.2593 56.3622 48.9012C57.8704 48.9236 59.3011 48.3802 60.3686 47.3789C61.4714 46.3444 62.0117 44.9789 61.989 43.6203C63.438 43.641 64.8931 43.1348 65.996 42.1003C67.8783 40.3346 68.1206 37.6054 66.7247 35.5907L71.8098 25.6014L79.454 19.4307C80.0862 18.9206 80.1826 18.0366 79.674 17.4177ZM16.7188 3.94686L23.0566 7.72721L9.26947 23.483L3.74459 19.0225L16.7188 3.94686ZM17.6129 37.3523L19.5258 35.558C19.5838 35.5037 19.6448 35.4521 19.7071 35.4041C20.0812 35.1178 20.5341 34.9472 21.0138 34.9065C21.0272 34.9054 21.0413 34.9054 21.0547 34.9048C21.1231 34.8997 21.1914 34.8962 21.2604 34.8968C21.9159 34.9054 22.5251 35.1567 22.9767 35.6039C23.8629 36.4827 23.8154 37.9186 22.8705 38.8049L21.0156 40.5448C20.0776 41.4247 18.5511 41.4247 17.6129 40.5448C16.6749 39.6642 16.6749 38.2323 17.6129 37.3523ZM22.5342 46.5104C22.0795 46.0844 21.8292 45.5177 21.8292 44.9148C21.8292 44.3119 22.0795 43.7451 22.5342 43.3186L26.2433 39.8394C26.9538 39.173 28.0707 38.9903 28.9789 39.3963C29.9152 39.8148 30.4419 40.768 30.3045 41.727C30.2313 42.2388 29.9774 42.7209 29.588 43.0867L25.9375 46.5104C25.4828 46.937 24.8786 47.1717 24.2359 47.1717C23.5931 47.1717 22.9889 46.937 22.5342 46.5104ZM28.1348 51.8148C27.6801 51.3889 27.4298 50.8221 27.4298 50.2192C27.4298 49.6163 27.6801 49.0495 28.1348 48.623L31.8433 45.1438C32.6031 44.4316 33.822 44.2781 34.7522 44.7859C35.6018 45.2497 36.0467 46.16 35.9009 47.0669C35.8209 47.5656 35.5682 48.0344 35.188 48.3912L31.5381 51.8148C31.0834 52.2413 30.4791 52.4761 29.8364 52.4761C29.1937 52.4761 28.5895 52.2413 28.1348 51.8148ZM34.5142 56.4406C33.576 55.5608 33.576 54.129 34.5142 53.2493L36.427 51.4547C36.485 51.4003 36.5454 51.3493 36.6077 51.3013C36.6095 51.3002 36.6107 51.2989 36.612 51.2978C36.9232 51.0608 37.2888 50.9022 37.6788 50.833C37.688 50.8318 37.6971 50.8307 37.7063 50.8295C37.7734 50.8181 37.8418 50.8089 37.9102 50.8032C37.9376 50.8009 37.9651 50.8009 37.9932 50.7992C38.0493 50.7963 38.1048 50.7929 38.1616 50.7934C38.8165 50.802 39.4262 51.0528 39.8779 51.5005C39.9334 51.5555 39.9853 51.6127 40.0329 51.6717C40.7544 52.5565 40.6573 53.8704 39.7619 54.7106L37.9169 56.4412C36.9787 57.3216 35.4522 57.321 34.5142 56.4406ZM63.7774 40.0191C62.8392 40.8997 61.3128 40.8991 60.3747 40.0191C60.3405 39.9871 60.3044 39.9573 60.2679 39.9293L50.1812 30.3682C49.5715 29.7905 48.5784 29.7859 47.9626 30.3579C47.3468 30.9292 47.3418 31.8607 47.951 32.4384L58.1469 42.102C58.1481 42.1031 58.1493 42.1043 58.1505 42.1054C59.0887 42.9854 59.0887 44.4178 58.1505 45.2978C57.6958 45.7244 57.0916 45.9591 56.4489 45.9591C55.8056 45.9591 55.2013 45.7244 54.7473 45.2978L47.9266 38.8335C47.3174 38.2558 46.3244 38.2512 45.7086 38.8226C45.0927 39.3945 45.0879 40.326 45.697 40.9037L52.4133 47.269C52.4475 47.3091 52.484 47.3474 52.5231 47.3841C53.4613 48.264 53.4613 49.6965 52.5231 50.5765C51.5844 51.4564 50.0573 51.4559 49.1192 50.5759L45.3967 47.0474C44.7869 46.4698 43.7939 46.4646 43.1781 47.0366C42.5622 47.6079 42.5574 48.5394 43.1664 49.1171L46.7852 52.5464C46.8194 52.5866 46.856 52.6255 46.8957 52.6624C47.8338 53.5421 47.8338 54.9746 46.8957 55.8543C45.9576 56.7354 44.4311 56.7347 43.493 55.8543C43.385 55.7531 43.258 55.6754 43.1371 55.5883C43.0346 55.5153 43.0078 55.4644 43.0591 55.3471C43.1109 55.2285 43.1884 55.122 43.2403 55.0027C43.2977 54.87 43.3441 54.7327 43.3892 54.5953C43.6297 53.8684 43.7005 53.0865 43.5925 52.3318C43.385 50.8839 42.536 49.5774 41.2494 48.7507C40.5542 48.3047 39.7497 48.0121 38.916 47.9022C39.32 46.2304 38.8348 44.4178 37.5726 43.1669C36.5338 42.1375 35.1306 41.5598 33.6212 41.5403C33.5662 41.5398 33.5113 41.5398 33.4558 41.5403C33.4894 40.1892 32.9657 38.8466 31.9727 37.8625C30.9333 36.8331 29.53 36.2554 28.0213 36.2359C27.5726 36.2302 27.1198 36.2749 26.6828 36.3693C26.496 35.1504 25.8411 34.0226 24.8493 33.2159C23.8636 32.4155 22.6239 31.9712 21.3037 31.954C19.9139 31.9351 18.5486 32.4161 17.5165 33.2903L11.4527 25.626L25.9595 9.04801L30.5829 10.2343L24.5447 20.2288C23.8147 21.4374 23.6304 22.84 24.0253 24.1786C24.4202 25.5177 25.3467 26.6318 26.6351 27.3166C26.7157 27.3595 26.7969 27.4002 26.8793 27.4391C26.8854 27.442 26.8915 27.4448 26.8982 27.4477C27.1148 27.549 27.3376 27.6361 27.5635 27.7094C28.6151 28.0511 29.751 28.0884 30.8465 27.8044C32.2735 27.434 33.4613 26.5643 34.1912 25.3563L38.1152 18.861L45.1214 19.3271L63.778 36.8268C64.7155 37.7073 64.7155 39.1392 63.7774 40.0191ZM64.4274 33.2743L46.9256 16.8578C46.8926 16.8263 46.8578 16.7965 46.8218 16.7684C46.5698 16.5715 46.2573 16.4525 45.9277 16.4307L37.3492 15.8599C36.756 15.8215 36.1664 16.1175 35.8734 16.6024L31.4618 23.9055C31.145 24.43 30.6293 24.8073 30.0098 24.9681C29.3909 25.129 28.7415 25.0534 28.1818 24.7563C27.6227 24.4591 27.2205 23.9754 27.049 23.3943C26.8775 22.8132 26.9574 22.204 27.2748 21.6796L33.164 11.9301L35.5505 11.286C35.5664 11.2814 35.5817 11.2757 35.5975 11.2711L44.5044 8.85853H55.266L68.7011 24.8788L64.4274 33.2743ZM70.7561 22.5693L58.3318 7.7461L64.6727 3.96347L76.2819 18.1087L70.7561 22.5693Z" fill="#FC8047"/>
</svg>
